:SAMPLES-PER-SECOND 30
:FULLY-SPECIFIED
:DEGREES
222
root  34.92849455 36.48745019 -14.62945112 12.55537415 13.68730164 5.205831051
lowerback  -8.403049469 3.387450218 3.702759504
upperback  -4.661610126 3.871959925 -4.740439892
thorax  0.4394589961 1.655240059 -6.686130047
lowerneck  -15.7741003 -1.418769956 1.724670053
upperneck  13.14640045 -3.506520033 5.892159939
head  6.697609901 -1.177049994 1.248399973
lclavicle  0 -4.497500157e-015 -2.743230041e-014
lhumerus  -44.32649994 27.36269951 66.49030304
lradius  -0.3802767396 -6.507048965e-006 26.32719803
lwrist  4.824992743e-007 -3.790274832e-007 -33.38959885
lhand  -0 -37.23020172 -10.63659954
lfingers  90 7.125020027 -90
lthumb  94.96241608 -25.46131841 101.4184844
rclavicle  0 -4.497500157e-015 -2.743230041e-014
rhumerus  59.39359665 -1.480779409 -47.72840118
rradius  -5.16745672e-007 2.214343908e-008 56.76050186
rwrist  1.129822067e-006 0.001802438172 -171.0720062
rhand  -1.770724771e-031 4.376100063 -7.50936985
rfingers  -90 -7.125020027 -90
rthumb  -85.06550427 -8.550245295 -59.8562009
rfemur  -14.68480587 9.868851662 14.43857956
rtibia  -3.318525791 2.101231575 24.33936691
rfoot  -2.966241598 -14.03890324 -45.38786697
rtoes  3.83755572 19.64318954 -101.2846916
lfemur  -12.55608654 -23.24495506 -18.94439125
ltibia  3.901665449 2.736205578 13.97899342
lfoot  0.7238927484 -29.94716835 28.135252
ltoes  -8.65149572 -18.10144517 -116.0917717
223
root  34.93352274 36.48912625 -14.62574155 12.53492355 13.5604372 5.143295288
lowerback  -8.375270844 3.358360291 3.61964035
upperback  -4.666480064 3.836420059 -4.762609959
thorax  0.410402 1.636119962 -6.667190075
lowerneck  -15.70460033 -1.358690023 1.828410029
upperneck  13.09449959 -3.445029974 5.891059875
head  6.666309834 -1.14617002 1.237769842
lclavicle  0 -4.497500157e-015 -2.743230041e-014
lhumerus  -44.31280136 27.00169945 66.71160126
lradius  -0.3782215118 -6.507048965e-006 26.50779724
lwrist  4.824992743e-007 -3.790274832e-007 -32.97090149
lhand  -4.433634775e-031 -37.20849991 -10.68550014
lfingers  90 7.125020027 -90
lthumb  94.96296558 -25.50998002 101.3999255
rclavicle  0 -4.497500157e-015 -2.743230041e-014
rhumerus  58.2779007 -1.420059919 -47.74229813
rradius  -5.16745672e-007 2.214343908e-008 58.25519943
rwrist  1.129822067e-006 0.001802438172 -171.7149963
rhand  -1.770893344e-031 4.446800232 -7.493040085
rfingers  -90 -7.125020027 -90
rthumb  -85.04094474 -8.56897586 -59.7860468
rfemur  -14.6505785 9.936657906 14.44587708
rtibia  -3.258405685 2.131924152 24.24513245
rfoot  -2.915572643 -14.05211544 -45.34371185
rtoes  3.84485621 19.6418162 -101.3064096
lfemur  -12.56547451 -23.20542717 -18.89659691
ltibia  3.878328562 2.728625774 14.03253365
lfoot  0.7375080585 -29.95033073 28.23829079
ltoes  -8.647520468 -18.10329503 -116.0789779
224
root  34.93863504 36.48886493 -14.62185777 12.49786472 13.43762493 5.108166218
lowerback  -8.321760178 3.313249826 3.539989948
upperback  -4.699069977 3.778419971 -4.74131012
thorax  0.3326080143 1.60402 -6.608170033
lowerneck  -15.6807003 -1.290949941 1.866060019
upperneck  13.12460041 -3.361809969 5.878389835
head  6.669350147 -1.105149984 1.236299872
lclavicle  0 -4.497500157e-015 -2.743230041e-014
lhumerus  -44.33950043 26.9090004 66.79989624
lradius  -0.3761534095 -6.507048965e-006 26.54310036
lwrist  4.824992743e-007 -3.790274832e-007 -32.65330124
lhand  -4.434481161e-031 -37.22290039 -10.67010021
lfingers  90 7.125020027 -90
lthumb  94.9663501 -25.49436754 101.4138811
rclavicle  0 -4.497500157e-015 -2.743230041e-014
rhumerus  57.20610046 -1.214250207 -47.47370148
rradius  -5.16745672e-007 2.214343908e-008 59.80319977
rwrist  1.129822067e-006 0.001802438172 -172.2830048
rhand  -1.77083316e-031 4.421689987 -7.504950047
rfingers  -90 -7.125020027 -90
rthumb  -85.0527867 -8.5570461 -59.81145403
rfemur  -14.60536671 9.990690231 14.4297924
rtibia  -3.211175203 2.120252609 24.18216324
rfoot  -2.89261055 -14.13340473 -45.30981445
rtoes  3.84695699 19.64142051 -101.3126594
lfemur  -12.53483295 -23.1907959 -18.8994751
ltibia  3.867111444 2.688474417 14.05670547
lfoot  0.7252876163 -29.87978172 28.30347061
ltoes  -8.671783709 -18.09198763 -116.1570858
225
root  34.94468148 36.48969095 -14.62037394 12.46309853 13.29582787 5.059596062
lowerback  -8.286899567 3.264899969 3.464280128
upperback  -4.715310097 3.716860056 -4.7197299
thorax  0.2820189893 1.571750045 -6.550069809
lowerneck  -15.6882 -1.224499941 1.899629951
upperneck  13.1814003 -3.275439978 5.832859993
head  6.684160709 -1.063721776 1.223372459
lclavicle  0 -4.497500157e-015 -2.743230041e-014
lhumerus  -44.41540146 26.93790054 66.79640198
lradius  -0.3740531504 -6.507048965e-006 26.63790131
lwrist  4.824992743e-007 -3.790274832e-007 -32.62129974
lhand  -4.430770962e-031 -37.15969849 -10.68480015
lfingers  90 7.125020027 -90
lthumb  94.93991806 -25.51110583 101.34765
rclavicle  0 -4.497500157e-015 -2.743230041e-014
rhumerus  56.17750168 -1.000569344 -47.47460175
rradius  -5.16745672e-007 2.214343908e-008 61.30459976
rwrist  1.129822067e-006 0.001802438172 -172.8309937
rhand  -1.770769164e-031 4.394830227 -7.431000233
rfingers  -90 -7.125020027 -90
rthumb  -85.02135534 -8.61925524 -59.83197697
rfemur  -14.55576706 10.06057167 14.41878128
rtibia  -3.156994581 2.119131088 24.09052658
rfoot  -2.838643789 -14.18361378 -45.24359131
rtoes  3.832712048 19.64409921 -101.2702832
lfemur  -12.52560711 -23.20885277 -18.87471581
ltibia  3.843163013 2.654515743 14.10978413
lfoot  0.7345514297 -29.835886 28.43379974
ltoes  -8.681632681 -18.08738637 -116.188805
226
root  34.95084507 36.49019857 -14.61971613 12.42038059 13.15432358 5.02721262
lowerback  -8.268650055 3.222239971 3.431839466
upperback  -4.730370045 3.659699917 -4.705349922
thorax  0.2455540001 1.541360021 -6.523180008
lowerneck  -15.6935997 -1.17595005 1.92719996
upperneck  13.22290039 -3.210200071 5.78553009
head  6.697070122 -1.033249855 1.21231997
lclavicle  0 -4.497500157e-015 -2.743230041e-014
lhumerus  -44.45240021 26.89649963 66.82790375
lradius  -0.3719204664 -6.507048965e-006 26.71209717
lwrist  4.824992743e-007 -3.790274832e-007 -32.59840012
lhand  -0 -37.13899994 -10.70250034
lfingers  90 7.125020027 -90
lthumb  94.93404325 -25.52919997 101.3271377
rclavicle  0 -4.497500157e-015 -2.743230041e-014
rhumerus  55.16230392 -0.8024267554 -47.40309906
rradius  -5.16745672e-007 2.214343908e-008 62.77759933
rwrist  1.129822067e-006 0.001802438172 -173.378006
rhand  -1.770694731e-031 4.363379955 -7.394499779
rfingers  -90 -7.125020027 -90
rthumb  -85.01009337 -8.648751005 -59.85983484
rfemur  -14.50142002 10.09869385 14.40378571
rtibia  -3.110615253 2.111475229 24.01888275
rfoot  -2.809813261 -14.24775982 -45.19720078
rtoes  3.841579963 19.64243285 -101.296663
lfemur  -12.44607639 -23.16606903 -18.89285278
ltibia  3.856867552 2.646067381 14.06919765
lfoot  0.7490327954 -29.81095886 28.55803871
ltoes  -8.667908231 -18.09379639 -116.1446068
227
root  34.95762742 36.49169141 -14.61873242 12.39333534 12.99802208 4.990264893
lowerback  -8.269610405 3.179810047 3.385309935
upperback  -4.719049931 3.605910063 -4.694320202
thorax  0.2470780015 1.515300035 -6.489820004
lowerneck  -15.70629978 -1.110000014 1.966840029
upperneck  13.2507 -3.128540039 5.762539864
head  6.705550194 -0.9928289652 1.206940055
lclavicle  0 -4.497500157e-015 -2.743230041e-014
lhumerus  -44.43859863 26.81100082 66.87449646
lradius  -0.3697748184 -6.507048965e-006 26.75099754
lwrist  4.824992743e-007 -3.790274832e-007 -32.58929825
lhand  -0 -37.17070007 -10.74940014
lfingers  90 7.125020027 -90
lthumb  94.95917246 -25.57401638 101.3654806
rclavicle  0 -4.497500157e-015 -2.743230041e-014
rhumerus  54.10229874 -0.6245664358 -47.46699905
rradius  -5.16745672e-007 2.214343908e-008 64.2684021
rwrist  1.129822067e-006 0.001802438172 -173.8549957
rhand  -1.77065982e-031 4.348549843 -7.381849766
rfingers  -90 -7.125020027 -90
rthumb  -85.00711697 -8.658722726 -59.87337232
rfemur  -14.46671963 10.11148834 14.3827095
rtibia  -3.060507774 2.085366488 23.94306183
rfoot  -2.774052858 -14.34819794 -45.11096573
rtoes  3.820673193 19.64635499 -101.2344741
lfemur  -12.39562988 -23.09176445 -18.89932442
ltibia  3.865133047 2.642530918 14.03892708
lfoot  0.756051302 -29.79025078 28.66040802
ltoes  -8.67830711 -18.08894075 -116.1780939
228
root  34.96428662 36.49412741 -14.61621532 12.37958622 12.84490967 4.951194286
lowerback  -8.240929604 3.14722991 3.353490353
upperback  -4.714789867 3.564440012 -4.694469929
thorax  0.2282170057 1.494289994 -6.476990223
lowerneck  -15.67759991 -1.075430036 2.013590097
upperneck  13.24639988 -3.082829952 5.717110157
head  6.696780205 -0.9728369713 1.189550042
lclavicle  0 -4.497500157e-015 -2.743230041e-014
lhumerus  -44.44599915 26.895998 66.80989838
lradius  -0.3676161468 -6.507048965e-006 26.74440193
lwrist  4.824992743e-007 -3.790274832e-007 -32.7303009
lhand  -4.426838784e-031 -37.09249878 -10.79829979
lfingers  90 7.125020027 -90
lthumb  94.93302571 -25.62483732 101.2864384
rclavicle  0 -4.497500157e-015 -2.743230041e-014
rhumerus  52.96429825 -0.468930155 -47.27690125
rradius  -5.16745672e-007 2.214343908e-008 65.76290131
rwrist  1.129822067e-006 0.001802438172 -174.6470032
rhand  -1.770584527e-031 4.316390038 -7.386219978
rfingers  -90 -7.125020027 -90
rthumb  -85.01674593 -8.652914576 -59.90505753
rfemur  -14.4545126 10.18375397 14.36445999
rtibia  -3.01529479 2.091706514 23.88159561
rfoot  -2.727467775 -14.37718582 -45.02894592
rtoes  3.870598623 19.63695192 -101.3830013
lfemur  -12.37095451 -23.01836777 -18.89941788
ltibia  3.863767624 2.6285429 14.02999592
lfoot  0.7596681118 -29.74962997 28.7371254
ltoes  -8.68957451 -18.08367132 -116.2143878
229
root  34.97235155 36.49671059 -14.61460534 12.35374546 12.65708923 4.893634796
lowerback  -8.216389656 3.130179882 3.311159611
upperback  -4.713059902 3.543149948 -4.711770058
thorax  0.2122520059 1.482879996 -6.474199772
lowerneck  -15.66129971 -1.00691998 2.113509893
upperneck  13.26760006 -3.003469944 5.655340195
head  6.696919918 -0.9346289635 1.161709905
lclavicle  0 -4.497500157e-015 -2.743230041e-014
lhumerus  -44.42689896 26.90859985 66.76930237
lradius  -0.3654444516 -6.507048965e-006 26.72590256
lwrist  4.824992743e-007 -3.790274832e-007 -32.75389862
lhand  -4.418508927e-031 -36.94940186 -10.82479954
lfingers  90 7.125020027 -90
lthumb  94.87125121 -25.6560591 101.1356611
rclavicle  0 -4.497500157e-015 -2.743230041e-014
rhumerus  51.68389893 -0.309191525 -46.9396019
rradius  -5.16745672e-007 2.214343908e-008 67.47750092
rwrist  1.129822067e-006 0.001802438172 -175.4539948
rhand  -1.770576296e-031 4.312860012 -7.510250092
rfingers  -90 -7.125020027 -90
rthumb  -85.0804848 -8.545312174 -59.91793592
rfemur  -14.43070889 10.22782612 14.35056114
rtibia  -2.956237555 2.090108395 23.79346085
rfoot  -2.670653582 -14.4648962 -44.91267014
rtoes  3.865080468 19.63799748 -101.3665815
lfemur  -12.35731792 -22.97254562 -18.87532425
ltibia  3.844591618 2.61497426 14.05883884
lfoot  0.7592262626 -29.73303223 28.87155724
ltoes  -8.664774744 -18.0952581 -116.1345178
